<svg width="64" height="64" viewBox="0 0 64 64" fill="none" xmlns="http://www.w3.org/2000/svg">
<path d="M3.19995 12.8C3.19995 9.28 6.07995 6.4 9.59995 6.4H54.4C56.0973 6.4 57.7252 7.07428 58.9254 8.27452C60.1257 9.47475 60.8 11.1026 60.8 12.8V57.6C60.8 59.2974 60.1257 60.9253 58.9254 62.1255C57.7252 63.3257 56.0973 64 54.4 64H9.59995C7.90257 64 6.2747 63.3257 5.07447 62.1255C3.87424 60.9253 3.19995 59.2974 3.19995 57.6V12.8ZM9.59995 19.2V57.6H54.4V19.2H9.59995ZM16 0H22.4V6.4H16V0ZM41.6 0H48V6.4H41.6V0ZM16 28.8H22.4V35.2H16V28.8ZM16 41.6H22.4V48H16V41.6ZM28.8 28.8H35.2V35.2H28.8V28.8ZM28.8 41.6H35.2V48H28.8V41.6ZM41.6 28.8H48V35.2H41.6V28.8ZM41.6 41.6H48V48H41.6V41.6Z" fill="black"/>
</svg>
