<svg width="64" height="64" viewBox="0 0 64 64" fill="none" xmlns="http://www.w3.org/2000/svg">
<g clip-path="url(#clip0_120_4923)">
<path d="M32 64C27.6709 64 23.5291 63.1571 19.5747 61.4712C15.6202 59.7854 12.2173 57.5167 9.36588 54.6654C6.5145 51.814 4.24588 48.4111 2.56003 44.4566C0.874177 40.5021 0.03125 36.3603 0.03125 32.0312C0.03125 27.7021 0.874177 23.5603 2.56003 19.6059C4.24588 15.6514 6.5145 12.2485 9.36588 9.39707C12.2173 6.54569 15.6202 4.26667 19.5747 2.56C23.5291 0.853333 27.6709 0 32 0C36.3291 0 40.4709 0.853333 44.4254 2.56C48.3799 4.26667 51.7828 6.54569 54.6342 9.39707C57.4856 12.2485 59.7542 15.6514 61.44 19.6059C63.1259 23.5603 63.9688 27.7021 63.9688 32.0312C63.9688 36.3603 63.1259 40.5021 61.44 44.4566C59.7542 48.4111 57.4856 51.814 54.6342 54.6654C51.7828 57.5167 48.3799 59.7854 44.4254 61.4712C40.4709 63.1571 36.3291 64 32 64ZM32 8.05463C27.6709 8.05463 23.6644 9.1161 19.9805 11.239C16.2966 13.362 13.3828 16.2654 11.2391 19.9493C9.09532 23.6332 8.02345 27.6501 8.02345 32C8.02345 36.3499 9.09532 40.3668 11.2391 44.0507C13.3828 47.7346 16.2966 50.6485 19.9805 52.7922C23.6644 54.9359 27.6709 56.0078 32 56.0078C36.3291 56.0078 40.3356 54.9359 44.0195 52.7922C47.7034 50.6485 50.6173 47.7346 52.761 44.0507C54.9047 40.3668 55.9766 36.3499 55.9766 32C55.9766 27.6501 54.9047 23.6332 52.761 19.9493C50.6173 16.2654 47.7034 13.362 44.0195 11.239C40.3356 9.1161 36.3291 8.05463 32 8.05463ZM43.9883 22.041L35.8088 33.0927C35.6007 33.9252 35.1428 34.6224 34.4352 35.1844C33.7275 35.7463 32.9158 36.0273 32 36.0273C31.1259 36.0273 30.335 35.7567 29.6273 35.2156C28.9197 34.6745 28.441 34.0085 28.1913 33.2176L16.0156 18.0449V16.0468H18.0137L32.0625 27.3483L41.9903 20.0429H43.9883V22.041Z" fill="black"/>
</g>
<defs>
<clipPath id="clip0_120_4923">
<rect width="64" height="64" fill="white"/>
</clipPath>
</defs>
</svg>
