<svg width="64" height="64" viewBox="0 0 64 64" fill="none" xmlns="http://www.w3.org/2000/svg">
<path d="M31.9999 6.24902L61.7142 19.1267L31.9999 31.9999L2.28564 19.1267L31.9999 6.24902Z" stroke="black" stroke-width="4.57143" stroke-linecap="round" stroke-linejoin="round"/>
<path d="M15.7714 25.001L15.7988 39.0079C15.7988 39.0079 20.7039 45.4993 31.9999 45.4993C43.2914 45.4993 48.2285 39.0079 48.2285 39.0079L48.2239 25.001M7.7485 48.4616V21.5359M7.7485 48.4616C9.19855 48.4616 10.5938 49.0376 11.6191 50.063C12.6445 51.0883 13.2205 52.479 13.2205 53.929C13.2205 55.3791 12.6445 56.7697 11.6191 57.7951C10.5938 58.8204 9.20313 59.3965 7.75307 59.3965C6.30302 59.3965 4.91236 58.8204 3.88702 57.7951C2.86168 56.7697 2.28564 55.3791 2.28564 53.929C2.28564 52.479 2.86168 51.0883 3.88702 50.063C4.91236 49.0376 6.29845 48.4616 7.7485 48.4616Z" stroke="black" stroke-width="4.57143" stroke-linecap="round" stroke-linejoin="round"/>
</svg>
