<svg width="64" height="64" viewBox="0 0 64 64" fill="none" xmlns="http://www.w3.org/2000/svg">
<g clip-path="url(#clip0_120_4938)">
<path d="M52 26C52 31.7375 50.1375 37.0375 47 41.3375L62.825 57.175C64.3875 58.7375 64.3875 61.275 62.825 62.8375C61.2625 64.4 58.725 64.4 57.1625 62.8375L41.3375 47C37.0375 50.15 31.7375 52 26 52C11.6375 52 0 40.3625 0 26C0 11.6375 11.6375 0 26 0C40.3625 0 52 11.6375 52 26ZM26 44C28.3638 44 30.7044 43.5344 32.8883 42.6298C35.0722 41.7252 37.0565 40.3994 38.7279 38.7279C40.3994 37.0565 41.7252 35.0722 42.6298 32.8883C43.5344 30.7044 44 28.3638 44 26C44 23.6362 43.5344 21.2956 42.6298 19.1117C41.7252 16.9278 40.3994 14.9435 38.7279 13.2721C37.0565 11.6006 35.0722 10.2748 32.8883 9.37017C30.7044 8.46558 28.3638 8 26 8C23.6362 8 21.2956 8.46558 19.1117 9.37017C16.9278 10.2748 14.9435 11.6006 13.2721 13.2721C11.6006 14.9435 10.2748 16.9278 9.37017 19.1117C8.46558 21.2956 8 23.6362 8 26C8 28.3638 8.46558 30.7044 9.37017 32.8883C10.2748 35.0722 11.6006 37.0565 13.2721 38.7279C14.9435 40.3994 16.9278 41.7252 19.1117 42.6298C21.2956 43.5344 23.6362 44 26 44Z" fill="black"/>
</g>
<defs>
<clipPath id="clip0_120_4938">
<rect width="64" height="64" fill="white"/>
</clipPath>
</defs>
</svg>
