<svg width="64" height="64" viewBox="0 0 64 64" fill="none" xmlns="http://www.w3.org/2000/svg">
<path d="M31.5555 0.444336C37.679 0.444336 42.9135 2.59248 47.2592 6.88878C51.6049 11.1851 53.7777 16.395 53.7777 22.5184C53.7777 25.5801 53.0123 29.111 51.4814 33.111C49.9506 37.111 48.0987 40.8147 45.9259 44.2221C43.7531 47.6295 41.5802 50.8394 39.4074 53.8517C37.2345 56.8641 35.4074 59.2592 33.9259 61.0369L31.5555 63.5554C30.9629 62.9629 30.1728 62.074 29.1851 60.8888C28.1975 59.7036 26.4444 57.4073 23.9259 53.9999C21.4074 50.5925 19.1605 47.2838 17.1851 44.074C15.2098 40.8641 13.4321 37.2345 11.8518 33.1851C10.2716 29.1357 9.48145 25.5801 9.48145 22.5184C9.48145 16.395 11.6296 11.1851 15.9259 6.88878C20.2222 2.59248 25.4321 0.444336 31.5555 0.444336ZM31.5555 30.3703C33.7284 30.3703 35.6049 29.6048 37.1851 28.074C38.7654 26.5431 39.5555 24.6912 39.5555 22.5184C39.5555 20.3456 38.7654 18.4937 37.1851 16.9629C35.6049 15.432 33.7284 14.6666 31.5555 14.6666C29.3827 14.6666 27.5308 15.432 26 16.9629C24.4691 18.4937 23.7037 20.3456 23.7037 22.5184C23.7037 24.6912 24.4691 26.5431 26 28.074C27.5308 29.6048 29.3827 30.3703 31.5555 30.3703Z" fill="black"/>
</svg>
