<svg width="1337" height="620" viewBox="0 0 1337 620" fill="none" xmlns="http://www.w3.org/2000/svg">
<rect width="1337" height="620" fill="#FCBC2A"/>
<path fill-rule="evenodd" clip-rule="evenodd" d="M1047.54 271.51C1064.09 271.51 1078.36 275.061 1090.37 282.163C1090.39 282.177 1090.41 282.192 1090.44 282.206L1090.47 275.51H1135.54L1135.32 457.79C1135.32 471.71 1131.91 483.357 1125.09 492.732C1118.28 502.107 1108.83 509.138 1096.76 513.826C1084.75 518.584 1070.94 520.964 1055.31 520.964C1040.61 520.964 1028.01 518.94 1017.5 514.891C1007.05 510.914 998.745 505.481 992.566 498.592C986.388 491.703 982.374 483.961 980.527 475.368L977 454.691L1017.5 456.191L1022.5 469.721C1023.78 472.988 1025.8 476.043 1028.57 478.884C1031.34 481.724 1035 483.996 1039.55 485.701C1044.16 487.476 1049.78 488.365 1056.38 488.365C1066.25 488.365 1074.38 485.949 1080.78 481.12C1087.24 476.361 1090.47 468.371 1090.47 457.15L1090.43 429.887C1090.41 429.9 1090.39 429.913 1090.37 429.926C1078.36 436.957 1064.09 440.472 1047.54 440.472C1030.99 440.472 1016.68 436.957 1004.61 429.926C992.604 422.823 983.335 412.951 976.801 400.309C970.267 387.596 967 372.859 967 356.097C967 339.194 970.267 324.421 976.801 311.779C983.335 299.066 992.604 289.194 1004.61 282.163C1016.68 275.061 1030.99 271.51 1047.54 271.51ZM874.54 271.533C891.088 271.533 905.363 275.084 917.366 282.186C929.44 289.218 938.744 299.09 945.278 311.803C951.812 324.445 955.08 339.217 955.08 356.121C955.08 372.882 951.812 387.62 945.278 400.333C938.744 412.975 929.44 422.847 917.366 429.949C905.363 436.98 891.088 440.496 874.54 440.496C857.992 440.496 843.68 436.98 831.606 429.949C819.604 422.847 810.335 412.975 803.801 400.333C797.267 387.62 794 372.882 794 356.121C794 339.217 797.267 324.445 803.801 311.803C810.335 299.089 819.604 289.218 831.606 282.186C843.68 275.084 857.992 271.533 874.54 271.533ZM262.358 218.533C278.409 218.533 291.797 220.912 302.521 225.671C313.246 230.429 321.306 237.035 326.704 245.486C332.102 253.867 334.801 263.526 334.801 274.464C334.801 282.986 333.097 290.479 329.688 296.942C326.278 303.334 321.591 308.589 315.625 312.709C309.73 316.757 302.983 319.634 295.384 321.339V323.469C303.693 323.824 311.471 326.167 318.715 330.5C326.03 334.832 331.96 340.905 336.506 348.718C341.051 356.459 343.324 365.692 343.324 376.417C343.324 387.993 340.447 398.327 334.694 407.418C329.013 416.437 320.597 423.575 309.446 428.831C298.296 434.086 284.553 436.715 268.218 436.715H175V218.533H262.358ZM504.017 256.565H403.129V308.554H496.453V346.587H403.129V398.682H504.443V436.715H357V218.533H504.017V256.565ZM665.017 256.565H564.129V308.554H657.453V346.587H564.129V398.682H665.443V436.715H518V218.533H665.017V256.565ZM777.254 436.715H731.87V218.533H777.254V436.715ZM874.753 306.156C867.154 306.156 860.762 308.323 855.577 312.655C850.464 316.987 846.593 322.882 843.965 330.34C841.408 337.797 840.129 346.284 840.129 355.802C840.129 365.318 841.408 373.806 843.965 381.263C846.593 388.721 850.464 394.616 855.577 398.948C860.762 403.209 867.154 405.34 874.753 405.34C882.281 405.34 888.567 403.209 893.609 398.948C898.652 394.616 902.452 388.721 905.009 381.263C907.637 373.806 908.95 365.318 908.95 355.802C908.95 346.284 907.637 337.797 905.009 330.34C902.452 322.882 898.652 316.987 893.609 312.655C888.567 308.323 882.281 306.156 874.753 306.156ZM1047.75 306.134C1040.15 306.134 1033.76 308.299 1028.58 312.632C1023.46 316.964 1019.59 322.859 1016.96 330.316C1014.41 337.774 1013.13 346.261 1013.13 355.778C1013.13 365.295 1014.41 373.783 1016.96 381.24C1019.59 388.697 1023.46 394.592 1028.58 398.925C1033.76 403.186 1040.15 405.316 1047.75 405.316C1055.28 405.316 1061.57 403.186 1066.61 398.925C1071.65 394.592 1075.45 388.697 1078.01 381.24C1080.64 373.783 1081.95 365.295 1081.95 355.778C1081.95 346.261 1080.64 337.773 1078.01 330.316C1075.45 322.859 1071.65 316.964 1066.61 312.632C1061.57 308.299 1055.28 306.134 1047.75 306.134ZM221.129 399.002H258.735C271.59 399.002 280.965 396.551 286.86 391.651C292.755 386.68 295.703 380.074 295.703 371.836C295.703 365.799 294.247 360.472 291.335 355.855C288.423 351.239 284.269 347.617 278.871 344.989C273.544 342.361 267.187 341.047 259.801 341.047H221.129V399.002ZM221.129 309.833H255.327C261.648 309.833 267.259 308.732 272.159 306.53C277.131 304.257 281.037 301.061 283.878 296.942C286.79 292.823 288.246 287.886 288.246 282.134C288.246 274.25 285.44 267.894 279.829 263.064C274.289 258.235 266.406 255.82 256.179 255.82H221.129V309.833ZM949.062 101.367C953.922 99.8491 960.172 99.6988 967.601 100.41L967.61 100.411L967.621 100.412C975.334 101.466 982.06 105.332 989.855 113.753C997.567 122.082 1006.36 134.91 1018.23 153.98C1028.19 150 1039.16 147.799 1050.68 147.799C1062.13 147.799 1073.04 149.977 1082.97 153.918C1094.73 135.021 1103.48 122.287 1111.15 114.004C1118.94 105.583 1125.67 101.717 1133.38 100.663L1133.39 100.662L1133.4 100.661C1140.83 99.9498 1147.08 100.1 1151.94 101.618C1156.67 103.097 1160.1 105.879 1161.98 110.388L1162.16 110.831L1162.18 110.872L1162.19 110.917C1163.18 116.05 1161.83 121.313 1158.18 125.04C1154.52 128.772 1148.61 130.902 1140.61 129.902C1132.96 128.946 1126.8 132.501 1120.57 138.813C1114.4 145.066 1108.28 153.893 1100.63 163.504C1120.57 177.658 1133.45 200.078 1133.45 225.315C1133.45 241.151 1128.38 255.877 1119.67 268.148C1101.07 256.204 1076.7 248.964 1050.02 248.964C1023.77 248.964 999.762 255.971 981.274 267.571C972.819 255.417 967.905 240.903 967.904 225.315C967.904 200.12 980.741 177.731 1000.62 163.573C992.853 153.838 986.669 144.884 980.432 138.562C974.204 132.25 968.045 128.695 960.389 129.651C952.387 130.651 946.482 128.521 942.825 124.789C939.174 121.063 937.825 115.799 938.814 110.666L938.823 110.621L938.839 110.58L939.018 110.137C940.906 105.628 944.327 102.846 949.062 101.367Z" fill="#092140"/>
</svg>
