<svg width="988" height="421" viewBox="0 0 988 421" fill="none" xmlns="http://www.w3.org/2000/svg">
<path d="M872.54 171.51C889.088 171.51 903.364 175.061 915.366 182.163C915.39 182.177 915.415 182.192 915.438 182.206L915.471 175.51H960.535L960.321 357.79C960.321 371.71 956.913 383.357 950.095 392.732C943.277 402.107 933.83 409.138 921.757 413.826C909.754 418.584 895.939 420.964 880.314 420.964C865.613 420.964 853.006 418.94 842.495 414.891C832.055 410.914 823.745 405.481 817.566 398.592C811.388 391.703 807.374 383.961 805.527 375.368L802 354.691L842.495 356.191L847.502 369.721C848.78 372.988 850.805 376.043 853.574 378.884C856.344 381.724 860.003 383.996 864.548 385.701C869.164 387.476 874.775 388.365 881.38 388.365C891.252 388.365 899.384 385.949 905.776 381.12C912.239 376.361 915.471 368.371 915.471 357.15L915.428 329.887C915.407 329.9 915.387 329.913 915.366 329.926C903.364 336.957 889.088 340.472 872.54 340.472C855.992 340.472 841.68 336.957 829.606 329.926C817.604 322.823 808.335 312.951 801.801 300.309C795.267 287.596 792 272.859 792 256.097C792 239.194 795.267 224.421 801.801 211.779C808.335 199.066 817.604 189.194 829.606 182.163C841.68 175.061 855.992 171.51 872.54 171.51ZM699.54 171.533C716.088 171.533 730.363 175.085 742.366 182.187C754.44 189.219 763.744 199.09 770.278 211.803C776.812 224.445 780.08 239.218 780.08 256.122C780.08 272.883 776.812 287.62 770.278 300.333C763.744 312.975 754.44 322.848 742.366 329.95C730.364 336.981 716.088 340.497 699.54 340.497C682.992 340.497 668.68 336.981 656.606 329.95C644.604 322.848 635.335 312.975 628.801 300.333C622.267 287.62 619 272.883 619 256.122C619 239.219 622.267 224.445 628.801 211.803C635.335 199.091 644.604 189.219 656.606 182.187C668.68 175.085 682.992 171.533 699.54 171.533ZM87.3584 118.533C103.409 118.533 116.797 120.913 127.521 125.672C138.246 130.43 146.306 137.035 151.704 145.486C157.102 153.867 159.801 163.526 159.801 174.464C159.801 182.986 158.096 190.479 154.688 196.942C151.278 203.334 146.591 208.59 140.625 212.71C134.73 216.758 127.983 219.634 120.384 221.339V223.469C128.693 223.825 136.471 226.168 143.715 230.501C151.03 234.833 156.96 240.906 161.506 248.719C166.051 256.46 168.324 265.693 168.324 276.417C168.324 287.993 165.447 298.328 159.694 307.419C154.013 316.438 145.597 323.576 134.446 328.832C123.296 334.087 109.553 336.716 93.2178 336.716H0V118.533H87.3584ZM329.017 156.566H228.129V208.554H321.453V246.588H228.129V298.682H329.443V336.716H182V118.533H329.017V156.566ZM490.017 156.566H389.129V208.554H482.453V246.588H389.129V298.682H490.443V336.716H343V118.533H490.017V156.566ZM602.254 336.716H556.87V118.533H602.254V336.716ZM699.753 206.157C692.154 206.157 685.762 208.324 680.577 212.656C675.464 216.988 671.593 222.883 668.965 230.341C666.408 237.798 665.129 246.285 665.129 255.802C665.129 265.319 666.408 273.806 668.965 281.263C671.593 288.721 675.464 294.616 680.577 298.948C685.762 303.209 692.154 305.341 699.753 305.341C707.281 305.341 713.567 303.209 718.609 298.948C723.652 294.616 727.452 288.721 730.009 281.263C732.637 273.806 733.95 265.319 733.95 255.802C733.95 246.285 732.637 237.798 730.009 230.341C727.452 222.883 723.652 216.988 718.609 212.656C713.567 208.324 707.281 206.157 699.753 206.157ZM872.753 206.134C865.154 206.134 858.762 208.299 853.577 212.632C848.464 216.964 844.593 222.859 841.965 230.316C839.408 237.773 838.129 246.261 838.129 255.778C838.129 265.295 839.408 273.783 841.965 281.24C844.593 288.697 848.464 294.592 853.577 298.925C858.762 303.185 865.154 305.316 872.753 305.316C880.281 305.316 886.567 303.186 891.609 298.925C896.652 294.592 900.452 288.697 903.009 281.24C905.637 273.783 906.95 265.295 906.95 255.778C906.95 246.261 905.637 237.773 903.009 230.316C900.452 222.859 896.652 216.964 891.609 212.632C886.567 208.299 880.281 206.134 872.753 206.134ZM46.1289 299.002H83.7354C96.5903 299.002 105.965 296.552 111.86 291.651C117.755 286.68 120.703 280.074 120.703 271.836C120.703 265.799 119.247 260.473 116.335 255.856C113.423 251.24 109.269 247.617 103.871 244.989C98.5444 242.361 92.1871 241.048 84.8008 241.048H46.1289V299.002ZM46.1289 209.833H80.3271C86.6479 209.833 92.2588 208.733 97.1592 206.531C102.131 204.258 106.037 201.061 108.878 196.942C111.79 192.823 113.246 187.887 113.246 182.135C113.246 174.251 110.44 167.894 104.829 163.064C99.2894 158.235 91.4057 155.82 81.1787 155.82H46.1289V209.833ZM774.062 1.36695C778.922 -0.150862 785.172 -0.30119 792.601 0.409923L792.61 0.410899L792.621 0.411876C800.334 1.46604 807.06 5.33238 814.855 13.7527C822.566 22.0821 831.362 34.9105 843.229 53.9802C853.193 50.0005 864.16 47.7977 875.676 47.7976C887.132 47.7976 898.044 49.9773 907.966 53.9177C919.735 35.0205 928.477 22.2874 936.146 14.0037C943.941 5.58325 950.667 1.71697 958.38 0.662852L958.391 0.661876L958.4 0.660899C965.829 -0.0501942 972.079 0.100107 976.938 1.61793C981.674 3.09718 985.095 5.8789 986.983 10.3884L987.162 10.8308L987.178 10.8718L987.187 10.9168C988.176 16.0504 986.827 21.3135 983.176 25.0398C979.519 28.7717 973.614 30.9016 965.612 29.9021C957.956 28.9456 951.797 32.5014 945.569 38.8132C939.4 45.0664 933.281 53.8932 925.631 63.5046C945.568 77.659 958.448 100.077 958.448 125.314C958.448 141.15 953.375 155.876 944.672 168.147C926.066 156.203 901.696 148.963 875.02 148.963C848.774 148.963 824.762 155.97 806.274 167.57C797.819 155.415 792.904 140.902 792.904 125.314C792.904 100.119 805.741 77.7312 825.622 63.573C817.854 53.8384 811.669 44.8843 805.432 38.5623C799.204 32.2505 793.045 28.6947 785.389 29.6511C777.387 30.6507 771.482 28.5207 767.825 24.7888C764.174 21.0625 762.825 15.7995 763.814 10.6658L763.823 10.6209L763.839 10.5798L764.018 10.1375C765.906 5.62781 769.327 2.84616 774.062 1.36695Z" fill="#092140"/>
</svg>
